<mxfile host="app.diagrams.net" agent="Mozilla/5.0 (Macintosh; Intel Mac OS X 10_15_7) AppleWebKit/537.36 (KHTML, like Gecko) Chrome/133.0.0.0 Safari/537.36" version="26.1.0" pages="2">
  <diagram name="Карта IT‑ландшафта" id="bd83a815-5ea8-2e97-e5ec-87c9f400f2fa">
    <mxGraphModel dx="1674" dy="761" grid="1" gridSize="10" guides="1" tooltips="1" connect="1" arrows="1" fold="1" page="1" pageScale="1.5" pageWidth="1169" pageHeight="826" background="none" math="0" shadow="0">
      <root>
        <mxCell id="0" style=";html=1;" />
        <mxCell id="1" style=";html=1;" parent="0" />
        <mxCell id="1516e18e63f93b96-1" value="&lt;table border=&quot;1&quot; width=&quot;100%&quot; cellpadding=&quot;4&quot; style=&quot;width: 100% ; height: 100% ; border-collapse: collapse&quot;&gt;&lt;tbody&gt;&lt;tr style=&quot;background-color: rgb(167, 201, 66); color: rgb(255, 255, 255); border: 1px solid rgb(152, 191, 33);&quot;&gt;&lt;th&gt;Параметр&lt;/th&gt;&lt;th&gt;Продажи в сети отделений&lt;/th&gt;&lt;th&gt;Продажи через кол-центр&lt;/th&gt;&lt;th&gt;Digital оповещения клиентов&lt;/th&gt;&lt;th&gt;Обслуживание депозитных процессов&lt;/th&gt;&lt;th&gt;Обслуживание кредитных процессов&lt;/th&gt;&lt;td&gt;&lt;b&gt;Управление договорами&lt;/b&gt;&lt;/td&gt;&lt;/tr&gt;&lt;tr style=&quot;border: 1px solid rgb(152, 191, 33);&quot;&gt;&lt;td style=&quot;background-color: rgb(167, 201, 66); color: rgb(255, 255, 255); border: 1px solid rgb(152, 191, 33);&quot;&gt;Управление &lt;br&gt;обслуживанием&lt;br&gt;&amp;nbsp;в сети отделений&lt;/td&gt;&lt;td&gt;АБС (Delphi, Oracle)&lt;/td&gt;&lt;td&gt;&lt;/td&gt;&lt;td&gt;&lt;br&gt;&lt;/td&gt;&lt;td&gt;АБС (Delphi, Oracle)&lt;/td&gt;&lt;td&gt;АБС (Delphi, Oracle)&lt;/td&gt;&lt;td&gt;АБС (Delphi, Oracle)&lt;/td&gt;&lt;/tr&gt;&lt;tr style=&quot;background-color: rgb(234, 242, 211); border: 1px solid rgb(152, 191, 33);&quot;&gt;&lt;td style=&quot;background-color: rgb(167, 201, 66); color: rgb(255, 255, 255); border: 1px solid rgb(152, 191, 33);&quot;&gt;Управление IT&lt;/td&gt;&lt;td&gt;&lt;/td&gt;&lt;td&gt;&lt;/td&gt;&lt;td&gt;&lt;br&gt;&lt;/td&gt;&lt;td&gt;&lt;br&gt;&lt;/td&gt;&lt;td&gt;&lt;br&gt;&lt;/td&gt;&lt;td&gt;&lt;br&gt;&lt;/td&gt;&lt;/tr&gt;&lt;tr style=&quot;border: 1px solid rgb(152, 191, 33);&quot;&gt;&lt;td style=&quot;background-color: rgb(167, 201, 66); color: rgb(255, 255, 255); border: 1px solid rgb(152, 191, 33);&quot;&gt;Управление &lt;br&gt;обслуживанием &lt;br&gt;депозитных продуктов&lt;/td&gt;&lt;td&gt;&lt;/td&gt;&lt;td&gt;&lt;/td&gt;&lt;td&gt;&lt;br&gt;&lt;/td&gt;&lt;td&gt;Excel-файлы, &lt;br&gt;передача ставок по Email&lt;/td&gt;&lt;td&gt;&lt;br&gt;&lt;/td&gt;&lt;td&gt;&lt;br&gt;&lt;/td&gt;&lt;/tr&gt;&lt;tr style=&quot;background-color: rgb(234, 242, 211); border: 1px solid rgb(152, 191, 33);&quot;&gt;&lt;td style=&quot;background-color: rgb(167, 201, 66); color: rgb(255, 255, 255); border: 1px solid rgb(152, 191, 33);&quot;&gt;Управление &lt;br&gt;обслуживанием &lt;br&gt;кредитных продуктов&lt;/td&gt;&lt;td&gt;&lt;/td&gt;&lt;td&gt;&lt;/td&gt;&lt;td&gt;&lt;br&gt;&lt;/td&gt;&lt;td&gt;&lt;br&gt;&lt;/td&gt;&lt;td&gt;Excel-файлы, &lt;br&gt;передача ставок по Email&lt;/td&gt;&lt;td&gt;&lt;br&gt;&lt;/td&gt;&lt;/tr&gt;&lt;tr style=&quot;border: 1px solid rgb(152, 191, 33);&quot;&gt;&lt;td style=&quot;background-color: rgb(167, 201, 66); color: rgb(255, 255, 255); border: 1px solid rgb(152, 191, 33);&quot;&gt;Кол-центр банка&lt;br&gt;&amp;nbsp;«Стандарт»&lt;br&gt;&lt;/td&gt;&lt;td&gt;&lt;br&gt;&lt;/td&gt;&lt;td&gt;Система кол-центра&lt;br&gt;&amp;nbsp;(Java, React.js, PostgreSQL)&lt;/td&gt;&lt;td&gt;&lt;br&gt;&lt;/td&gt;&lt;td&gt;&lt;br&gt;&lt;/td&gt;&lt;td&gt;&lt;br&gt;&lt;/td&gt;&lt;td&gt;&lt;br&gt;&lt;/td&gt;&lt;/tr&gt;&lt;tr style=&quot;background-color: rgb(234, 242, 211); border: 1px solid rgb(152, 191, 33);&quot;&gt;&lt;td style=&quot;background-color: rgb(167, 201, 66); color: rgb(255, 255, 255); border: 1px solid rgb(152, 191, 33);&quot;&gt;Партнёрский &lt;br&gt;кол-центр&lt;br&gt;&lt;/td&gt;&lt;td&gt;&lt;br&gt;&lt;/td&gt;&lt;td&gt;Внешняя система&lt;/td&gt;&lt;td&gt;&lt;br&gt;&lt;/td&gt;&lt;td&gt;&lt;br&gt;&lt;/td&gt;&lt;td&gt;&lt;br&gt;&lt;/td&gt;&lt;td&gt;&lt;br&gt;&lt;/td&gt;&lt;/tr&gt;&lt;tr style=&quot;border: 1px solid rgb(152, 191, 33);&quot;&gt;&lt;td style=&quot;background-color: rgb(167, 201, 66); color: rgb(255, 255, 255); border: 1px solid rgb(152, 191, 33);&quot;&gt;Команда цифровой &lt;br&gt;трансформации &lt;br&gt;розничного бизнеса&lt;br&gt;&lt;/td&gt;&lt;td&gt;&lt;br&gt;&lt;/td&gt;&lt;td&gt;&lt;br&gt;&lt;/td&gt;&lt;td&gt;&lt;br&gt;&lt;/td&gt;&lt;td&gt;&lt;br&gt;&lt;/td&gt;&lt;td&gt;&lt;br&gt;&lt;/td&gt;&lt;td&gt;&lt;br&gt;&lt;/td&gt;&lt;/tr&gt;&lt;/tbody&gt;&lt;/table&gt;" style="text;html=1;strokeColor=#c0c0c0;fillColor=#ffffff;overflow=fill;rounded=0;shadow=1;fontSize=14;fontColor=#000000;direction=west;" parent="1" vertex="1">
          <mxGeometry x="40" y="160" width="1560" height="660" as="geometry" />
        </mxCell>
        <mxCell id="1516e18e63f93b96-3" value="Карта IT‑ландшафта" style="text;strokeColor=none;fillColor=none;html=1;fontSize=24;fontStyle=1;verticalAlign=middle;align=center;rounded=0;shadow=1;" parent="1" vertex="1">
          <mxGeometry x="470" y="80" width="780" height="40" as="geometry" />
        </mxCell>
      </root>
    </mxGraphModel>
  </diagram>
  <diagram id="pqlBDlqYXO7QFW4jwTDU" name="Диаграмма интеграции приложений">
    <mxGraphModel dx="2314" dy="1121" grid="1" gridSize="10" guides="1" tooltips="1" connect="1" arrows="1" fold="1" page="1" pageScale="1" pageWidth="827" pageHeight="1169" math="0" shadow="0">
      <root>
        <mxCell id="0" />
        <mxCell id="1" parent="0" />
        <mxCell id="lr6h-Tt1NoJrWal4Lz2A-3" value="" style="group" vertex="1" connectable="0" parent="1">
          <mxGeometry x="180" y="330" width="440" height="540" as="geometry" />
        </mxCell>
        <mxCell id="lr6h-Tt1NoJrWal4Lz2A-1" value="" style="rounded=0;whiteSpace=wrap;html=1;fillColor=light-dark(#CCE5FF,var(--ge-dark-color, #121212));" vertex="1" parent="lr6h-Tt1NoJrWal4Lz2A-3">
          <mxGeometry width="440" height="540" as="geometry" />
        </mxCell>
        <mxCell id="lr6h-Tt1NoJrWal4Lz2A-2" value="&lt;b&gt;Системы&lt;/b&gt;" style="text;html=1;align=center;verticalAlign=middle;whiteSpace=wrap;rounded=0;" vertex="1" parent="lr6h-Tt1NoJrWal4Lz2A-3">
          <mxGeometry width="61.395348837209305" height="30" as="geometry" />
        </mxCell>
        <mxCell id="v_DBfZKMBGV73V61UIT--9" value="" style="edgeStyle=orthogonalEdgeStyle;rounded=0;orthogonalLoop=1;jettySize=auto;html=1;" edge="1" parent="1" source="2VjSS6vvrajIs_249RwY-2" target="2VjSS6vvrajIs_249RwY-5">
          <mxGeometry relative="1" as="geometry" />
        </mxCell>
        <mxCell id="v_DBfZKMBGV73V61UIT--10" value="Оставляет заявку" style="edgeLabel;html=1;align=center;verticalAlign=middle;resizable=0;points=[];" vertex="1" connectable="0" parent="v_DBfZKMBGV73V61UIT--9">
          <mxGeometry x="-0.0222" y="2" relative="1" as="geometry">
            <mxPoint as="offset" />
          </mxGeometry>
        </mxCell>
        <mxCell id="2VjSS6vvrajIs_249RwY-2" value="Клиент" style="verticalLabelPosition=bottom;html=1;verticalAlign=top;align=center;strokeColor=none;fillColor=#00BEF2;shape=mxgraph.azure.user;" vertex="1" parent="1">
          <mxGeometry x="700" y="460" width="47.5" height="50" as="geometry" />
        </mxCell>
        <mxCell id="v_DBfZKMBGV73V61UIT--13" style="edgeStyle=orthogonalEdgeStyle;rounded=0;orthogonalLoop=1;jettySize=auto;html=1;entryX=0;entryY=0.5;entryDx=0;entryDy=0;" edge="1" parent="1" source="2VjSS6vvrajIs_249RwY-3" target="v_DBfZKMBGV73V61UIT--1">
          <mxGeometry relative="1" as="geometry" />
        </mxCell>
        <mxCell id="v_DBfZKMBGV73V61UIT--14" value="Вводит заявки вручную" style="edgeLabel;html=1;align=center;verticalAlign=middle;resizable=0;points=[];" vertex="1" connectable="0" parent="v_DBfZKMBGV73V61UIT--13">
          <mxGeometry x="-0.0508" y="1" relative="1" as="geometry">
            <mxPoint as="offset" />
          </mxGeometry>
        </mxCell>
        <mxCell id="2VjSS6vvrajIs_249RwY-3" value="Менеджер &lt;br&gt;отделения" style="verticalLabelPosition=bottom;html=1;verticalAlign=top;align=center;strokeColor=none;fillColor=#00BEF2;shape=mxgraph.azure.user;" vertex="1" parent="1">
          <mxGeometry x="30" y="605" width="47.5" height="50" as="geometry" />
        </mxCell>
        <mxCell id="v_DBfZKMBGV73V61UIT--24" style="edgeStyle=orthogonalEdgeStyle;rounded=0;orthogonalLoop=1;jettySize=auto;html=1;" edge="1" parent="1" source="2VjSS6vvrajIs_249RwY-4" target="2VjSS6vvrajIs_249RwY-2">
          <mxGeometry relative="1" as="geometry" />
        </mxCell>
        <mxCell id="v_DBfZKMBGV73V61UIT--25" value="Отправляет SMS" style="edgeLabel;html=1;align=center;verticalAlign=middle;resizable=0;points=[];" vertex="1" connectable="0" parent="v_DBfZKMBGV73V61UIT--24">
          <mxGeometry x="0.09" y="-2" relative="1" as="geometry">
            <mxPoint as="offset" />
          </mxGeometry>
        </mxCell>
        <mxCell id="2VjSS6vvrajIs_249RwY-4" value="Телеком &lt;br&gt;оператор" style="verticalLabelPosition=bottom;html=1;verticalAlign=top;align=center;strokeColor=none;fillColor=#00BEF2;shape=mxgraph.azure.user;" vertex="1" parent="1">
          <mxGeometry x="700" y="300" width="47.5" height="50" as="geometry" />
        </mxCell>
        <mxCell id="v_DBfZKMBGV73V61UIT--11" style="edgeStyle=orthogonalEdgeStyle;rounded=0;orthogonalLoop=1;jettySize=auto;html=1;entryX=1;entryY=0.5;entryDx=0;entryDy=0;" edge="1" parent="1" source="2VjSS6vvrajIs_249RwY-5" target="2VjSS6vvrajIs_249RwY-14">
          <mxGeometry relative="1" as="geometry" />
        </mxCell>
        <mxCell id="v_DBfZKMBGV73V61UIT--12" value="Вводит заявку" style="edgeLabel;html=1;align=center;verticalAlign=middle;resizable=0;points=[];" vertex="1" connectable="0" parent="v_DBfZKMBGV73V61UIT--11">
          <mxGeometry x="0.0699" relative="1" as="geometry">
            <mxPoint as="offset" />
          </mxGeometry>
        </mxCell>
        <mxCell id="2VjSS6vvrajIs_249RwY-5" value="Оператор&lt;br&gt;&amp;nbsp;КЦ" style="verticalLabelPosition=bottom;html=1;verticalAlign=top;align=center;strokeColor=none;fillColor=#00BEF2;shape=mxgraph.azure.user;" vertex="1" parent="1">
          <mxGeometry x="700" y="615" width="47.5" height="50" as="geometry" />
        </mxCell>
        <mxCell id="v_DBfZKMBGV73V61UIT--15" style="edgeStyle=orthogonalEdgeStyle;rounded=0;orthogonalLoop=1;jettySize=auto;html=1;entryX=0;entryY=0.5;entryDx=0;entryDy=0;" edge="1" parent="1" source="2VjSS6vvrajIs_249RwY-6" target="2VjSS6vvrajIs_249RwY-13">
          <mxGeometry relative="1" as="geometry" />
        </mxCell>
        <mxCell id="v_DBfZKMBGV73V61UIT--16" value="Передает заявки&lt;br&gt;&amp;nbsp;вручную" style="edgeLabel;html=1;align=center;verticalAlign=middle;resizable=0;points=[];" vertex="1" connectable="0" parent="v_DBfZKMBGV73V61UIT--15">
          <mxGeometry x="-0.2039" y="1" relative="1" as="geometry">
            <mxPoint x="1" as="offset" />
          </mxGeometry>
        </mxCell>
        <mxCell id="2VjSS6vvrajIs_249RwY-6" value="Бэк офис" style="verticalLabelPosition=bottom;html=1;verticalAlign=top;align=center;strokeColor=none;fillColor=#00BEF2;shape=mxgraph.azure.user;" vertex="1" parent="1">
          <mxGeometry x="30" y="470" width="47.5" height="50" as="geometry" />
        </mxCell>
        <mxCell id="v_DBfZKMBGV73V61UIT--18" style="edgeStyle=orthogonalEdgeStyle;rounded=0;orthogonalLoop=1;jettySize=auto;html=1;entryX=0.5;entryY=0;entryDx=0;entryDy=0;" edge="1" parent="1" source="2VjSS6vvrajIs_249RwY-12" target="2VjSS6vvrajIs_249RwY-14">
          <mxGeometry relative="1" as="geometry" />
        </mxCell>
        <mxCell id="v_DBfZKMBGV73V61UIT--19" value="Передает заявки&lt;br&gt;&amp;nbsp;вручную" style="edgeLabel;html=1;align=center;verticalAlign=middle;resizable=0;points=[];" vertex="1" connectable="0" parent="v_DBfZKMBGV73V61UIT--18">
          <mxGeometry x="-0.0353" y="-2" relative="1" as="geometry">
            <mxPoint as="offset" />
          </mxGeometry>
        </mxCell>
        <mxCell id="2VjSS6vvrajIs_249RwY-12" value="Партнерская система КЦ" style="rounded=1;whiteSpace=wrap;html=1;" vertex="1" parent="1">
          <mxGeometry x="300" y="380" width="120" height="60" as="geometry" />
        </mxCell>
        <mxCell id="v_DBfZKMBGV73V61UIT--17" style="edgeStyle=orthogonalEdgeStyle;rounded=0;orthogonalLoop=1;jettySize=auto;html=1;entryX=0.5;entryY=0;entryDx=0;entryDy=0;" edge="1" parent="1" source="2VjSS6vvrajIs_249RwY-13" target="v_DBfZKMBGV73V61UIT--1">
          <mxGeometry relative="1" as="geometry" />
        </mxCell>
        <mxCell id="2VjSS6vvrajIs_249RwY-13" value="Excel файлы &lt;br&gt;+ &lt;br&gt;Email" style="rounded=1;whiteSpace=wrap;html=1;" vertex="1" parent="1">
          <mxGeometry x="300" y="500" width="120" height="60" as="geometry" />
        </mxCell>
        <mxCell id="v_DBfZKMBGV73V61UIT--22" style="edgeStyle=orthogonalEdgeStyle;rounded=0;orthogonalLoop=1;jettySize=auto;html=1;entryX=1;entryY=0.5;entryDx=0;entryDy=0;" edge="1" parent="1" source="2VjSS6vvrajIs_249RwY-14" target="v_DBfZKMBGV73V61UIT--1">
          <mxGeometry relative="1" as="geometry">
            <Array as="points">
              <mxPoint x="520" y="635" />
            </Array>
          </mxGeometry>
        </mxCell>
        <mxCell id="v_DBfZKMBGV73V61UIT--23" value="Ручной Email/Excel" style="edgeLabel;html=1;align=center;verticalAlign=middle;resizable=0;points=[];" vertex="1" connectable="0" parent="v_DBfZKMBGV73V61UIT--22">
          <mxGeometry x="-0.4514" y="1" relative="1" as="geometry">
            <mxPoint as="offset" />
          </mxGeometry>
        </mxCell>
        <mxCell id="2VjSS6vvrajIs_249RwY-14" value="CRM" style="rounded=1;whiteSpace=wrap;html=1;" vertex="1" parent="1">
          <mxGeometry x="460" y="500" width="120" height="60" as="geometry" />
        </mxCell>
        <mxCell id="v_DBfZKMBGV73V61UIT--20" style="edgeStyle=orthogonalEdgeStyle;rounded=0;orthogonalLoop=1;jettySize=auto;html=1;entryX=0.5;entryY=0;entryDx=0;entryDy=0;" edge="1" parent="1" source="v_DBfZKMBGV73V61UIT--1" target="v_DBfZKMBGV73V61UIT--2">
          <mxGeometry relative="1" as="geometry" />
        </mxCell>
        <mxCell id="v_DBfZKMBGV73V61UIT--21" value="Отправляет уведомления&lt;br&gt;&amp;nbsp;вручную" style="edgeLabel;html=1;align=center;verticalAlign=middle;resizable=0;points=[];" vertex="1" connectable="0" parent="v_DBfZKMBGV73V61UIT--20">
          <mxGeometry x="-0.0305" relative="1" as="geometry">
            <mxPoint x="1" as="offset" />
          </mxGeometry>
        </mxCell>
        <mxCell id="v_DBfZKMBGV73V61UIT--1" value="АБС" style="rounded=1;whiteSpace=wrap;html=1;" vertex="1" parent="1">
          <mxGeometry x="300" y="605" width="120" height="60" as="geometry" />
        </mxCell>
        <mxCell id="v_DBfZKMBGV73V61UIT--2" value="Система &lt;br&gt;SMS-уведомлений" style="rounded=1;whiteSpace=wrap;html=1;" vertex="1" parent="1">
          <mxGeometry x="294" y="790" width="120" height="60" as="geometry" />
        </mxCell>
        <mxCell id="v_DBfZKMBGV73V61UIT--5" value="" style="edgeStyle=orthogonalEdgeStyle;rounded=0;orthogonalLoop=1;jettySize=auto;html=1;" edge="1" parent="1" source="v_DBfZKMBGV73V61UIT--4" target="2VjSS6vvrajIs_249RwY-12">
          <mxGeometry relative="1" as="geometry" />
        </mxCell>
        <mxCell id="v_DBfZKMBGV73V61UIT--6" value="Принимает заявки" style="edgeLabel;html=1;align=center;verticalAlign=middle;resizable=0;points=[];" vertex="1" connectable="0" parent="v_DBfZKMBGV73V61UIT--5">
          <mxGeometry x="0.2599" y="-1" relative="1" as="geometry">
            <mxPoint as="offset" />
          </mxGeometry>
        </mxCell>
        <mxCell id="v_DBfZKMBGV73V61UIT--4" value="Партнерский КЦ" style="verticalLabelPosition=bottom;html=1;verticalAlign=top;align=center;strokeColor=none;fillColor=#00BEF2;shape=mxgraph.azure.user;" vertex="1" parent="1">
          <mxGeometry x="336.25" y="220" width="47.5" height="50" as="geometry" />
        </mxCell>
      </root>
    </mxGraphModel>
  </diagram>
</mxfile>
